<?xml version="1.0" standalone="no"?><svg xmlns="http://www.w3.org/2000/svg" viewBox="0 0 1440 320"><path fill="#2f4c7a" fill-opacity="1" d="M0,224L14.1,224C28.2,224,56,224,85,218.7C112.9,213,141,203,169,165.3C197.6,128,226,64,254,37.3C282.4,11,311,21,339,48C367.1,75,395,117,424,122.7C451.8,128,480,96,508,101.3C536.5,107,565,149,593,176C621.2,203,649,213,678,229.3C705.9,245,734,267,762,229.3C790.6,192,819,96,847,53.3C875.3,11,904,21,932,53.3C960,85,988,139,1016,176C1044.7,213,1073,235,1101,229.3C1129.4,224,1158,192,1186,197.3C1214.1,203,1242,245,1271,229.3C1298.8,213,1327,139,1355,112C1383.5,85,1412,107,1426,117.3L1440,128L1440,0L1425.9,0C1411.8,0,1384,0,1355,0C1327.1,0,1299,0,1271,0C1242.4,0,1214,0,1186,0C1157.6,0,1129,0,1101,0C1072.9,0,1045,0,1016,0C988.2,0,960,0,932,0C903.5,0,875,0,847,0C818.8,0,791,0,762,0C734.1,0,706,0,678,0C649.4,0,621,0,593,0C564.7,0,536,0,508,0C480,0,452,0,424,0C395.3,0,367,0,339,0C310.6,0,282,0,254,0C225.9,0,198,0,169,0C141.2,0,113,0,85,0C56.5,0,28,0,14,0L0,0Z"></path></svg>